<svg xmlns="http://www.w3.org/2000/svg" viewBox="0 0 527.35 513"><defs><style>.cls-1,.cls-3{fill:#e0e1e2;}.cls-2{stroke:#000;}.cls-2,.cls-3,.cls-4{stroke-miterlimit:10;}.cls-3,.cls-4{stroke:#fff;stroke-width:4px;}</style></defs><g id="Layer_3" data-name="Layer 3"><path class="cls-1" d="M472,25.24c-141.23,0-256,114.77-256,256s114.77,256,256,256H728v-256C728,140,613.23,25.24,472,25.24ZM685.33,494.57H472c-117.55,0-213.33-95.78-213.33-213.33S354.45,67.91,472,67.91s213.33,95.78,213.33,213.33Z" transform="translate(-200.65 -24.74)"/><path class="cls-2" d="M457.15,25.24c-141.23,0-256,114.77-256,256s114.77,256,256,256h256v-256C713.15,140,598.38,25.24,457.15,25.24ZM670.48,494.57H457.15c-117.55,0-213.33-95.78-213.33-213.33S339.6,67.91,457.15,67.91s213.33,95.78,213.33,213.33Z" transform="translate(-200.65 -24.74)"/><path class="cls-3" d="M606.75,233.24V393.56h0A54.72,54.72,0,0,1,552,338.84V279.92a3.8,3.8,0,0,0-7.36-1.33l-36,96.55a28.32,28.32,0,0,1-26.53,18.42h0A35.35,35.35,0,0,1,449,370.61l-32.59-87.06a4.85,4.85,0,0,0-9.38,1.7v53.59a54.72,54.72,0,0,1-54.72,54.72h0v-160A64.64,64.64,0,0,1,417,168.92l.36.87,63,155.52,62-156.39h0A64.31,64.31,0,0,1,606.75,233.24Z" transform="translate(-200.65 -24.74)"/><path class="cls-4" d="M599.2,233.24V393.56h0a54.72,54.72,0,0,1-54.72-54.72V279.92a3.81,3.81,0,0,0-7.37-1.33l-36,96.55a28.32,28.32,0,0,1-26.53,18.42h0a35.34,35.34,0,0,1-33.09-22.95l-32.6-87.06a4.84,4.84,0,0,0-9.37,1.7v53.59a54.72,54.72,0,0,1-54.72,54.72h0v-160a64.64,64.64,0,0,1,64.64-64.64l.36.87,63,155.52,62-156.39h0A64.32,64.32,0,0,1,599.2,233.24Z" transform="translate(-200.65 -24.74)"/></g></svg>